HIERARCHY
ROOT Hips
{
	OFFSET 0.00000 0.00000 0.00000
	CHANNELS 6 Xposition Yposition Zposition Zrotation Yrotation Xrotation 
	JOINT LHipJoint
	{
		OFFSET 0 0 0
		CHANNELS 3 Zrotation Yrotation Xrotation
		JOINT LeftHip
		{
			OFFSET 1.64577 -1.42384 0.94276
			CHANNELS 3 Zrotation Yrotation Xrotation
			JOINT LeftKnee
			{
				OFFSET 2.11538 -5.81197 0.00000
				CHANNELS 3 Zrotation Yrotation Xrotation
				JOINT LeftAnkle
				{
					OFFSET 2.36541 -6.49893 0.00000
					CHANNELS 3 Zrotation Yrotation Xrotation
					JOINT LeftToe
					{
						OFFSET 0.17759 -0.48793 1.73865
						CHANNELS 3 Zrotation Yrotation Xrotation
						End Site
						{
							OFFSET 0.00000 -0.00000 0.91205
						}
					}
				}
			}
		}
	}
	JOINT RHipJoint
	{
		OFFSET 0 0 0
		CHANNELS 3 Zrotation Yrotation Xrotation
		JOINT RightHip
		{
			OFFSET -1.43750 -1.42384 0.94276
			CHANNELS 3 Zrotation Yrotation Xrotation
			JOINT RightKnee
			{
				OFFSET -2.10480 -5.78291 0.00000
				CHANNELS 3 Zrotation Yrotation Xrotation
				JOINT RightAnkle
				{
					OFFSET -2.34880 -6.45329 0.00000
					CHANNELS 3 Zrotation Yrotation Xrotation
					JOINT RightToe
					{
						OFFSET -0.22842 -0.62757 1.80469
						CHANNELS 3 Zrotation Yrotation Xrotation
						End Site
						{
							OFFSET -0.00000 -0.00000 0.95886
						}
					}
				}
			}
		}
	}
	JOINT lowerback
	{
		OFFSET 0 0 0
		CHANNELS 3 Zrotation Yrotation Xrotation
		JOINT Chest
		{
			OFFSET 0.06217 1.93758 -0.49272
			CHANNELS 3 Zrotation Yrotation Xrotation
			JOINT Chest2
			{
				OFFSET -0.03114 2.03621 -0.05830
				CHANNELS 3 Zrotation Yrotation Xrotation
				JOINT lowerneck
				{
					OFFSET 0 0 0
					CHANNELS 3 Zrotation Yrotation Xrotation
					JOINT Neck
					{
						OFFSET 0.04421 1.41010 0.26562
						CHANNELS 3 Zrotation Yrotation Xrotation
						JOINT Head
						{
							OFFSET -0.13407 1.43847 0.06181
							CHANNELS 3 Zrotation Yrotation Xrotation
							End Site
							{
								OFFSET -0.04980 1.45844 -0.00689
							}
						}
					}
				}
				JOINT LeftCollar
				{
					OFFSET 0 0 0
					CHANNELS 3 Zrotation Yrotation Xrotation
					JOINT LeftShoulder
					{
						OFFSET 2.18382 1.47753 -0.35694
CHANNELS 3 Zrotation Xrotation Yrotation
						JOINT LeftElbow
						{
OFFSET 0 -5.054600 0.000000
CHANNELS 3 Zrotation Xrotation Yrotation
							JOINT LeftWrist
							{
OFFSET 0 -3.390130 0.000000
CHANNELS 3 Zrotation Xrotation Yrotation
								JOINT lhand
								{
									OFFSET 0 0 0
CHANNELS 3 Zrotation Xrotation Yrotation
									JOINT LFingers
									{
OFFSET 0 -0.572420 -0.000000
CHANNELS 3 Zrotation Xrotation Yrotation
										End Site
										{
OFFSET 0 -0.461500 -0.000000
										}
									}
								}
								JOINT LThumb
								{
OFFSET 0 0.000000 0.000000
CHANNELS 3 Zrotation Xrotation Yrotation
									End Site
									{
OFFSET 0 -0.468550 0.468550
									}
								}
							}
						}
					}
				}
				JOINT RightCollar
				{
					OFFSET 0 0 0
					CHANNELS 3 Zrotation Yrotation Xrotation
					JOINT RightShoulder
					{
						OFFSET -2.06033 1.72839 -0.47437
CHANNELS 3 Zrotation Xrotation Yrotation
						JOINT RightElbow
						{
OFFSET 0 -5.070100 0.000000
CHANNELS 3 Zrotation Xrotation Yrotation
							JOINT RightWrist
							{
OFFSET 0 -3.149570 -0.000000
CHANNELS 3 Zrotation Xrotation Yrotation
								JOINT rhand
								{
									OFFSET 0 0 0
CHANNELS 3 Zrotation Xrotation Yrotation
									JOINT RFingers
									{
OFFSET 0 -0.718190 -0.000000
CHANNELS 3 Zrotation Xrotation Yrotation
										End Site
										{
OFFSET 0 -0.579020 -0.000000
										}
									}
								}
								JOINT RThumb
								{
OFFSET 0 0.000000 0.000000
CHANNELS 3 Zrotation Xrotation Yrotation
									End Site
									{
OFFSET 0 -0.587860 0.587860
									}
								}
							}
						}
					}
				}
			}
		}
	}
}
MOTION
Frames: 7
Frame Time: 0.008333333333333333
-3.551616 15.044228 -15.676144 -102.882745 -71.381344 -619.276287 0.000000 0.000000 0.000000 -21.662394 -13.125469 -19.319619 3.574086 11.569446 34.227231 0.965448 4.743991 -20.853361 1.050579 6.505072 18.261400 0.000000 0.000000 0.000000 29.284570 -8.838964 4.956283 -6.438844 -14.825658 46.690366 0.672026 -14.461509 -7.396563 -2.641217 10.088456 -29.265380 8.607160 4.052001 9.450023 1.589277 5.637625 6.696008 -3.506614 2.953015 2.445292 13.019949 8.289152 -6.369696 -14.519465 11.203023 7.567706 -5.849546 5.219487 4.885241 0.000000 0.000000 0.000000 5.450820 50.804761 -25.430358 86.354794 -59.949517 56.843727 30.180952 -21.109803 -5.960236 0.000000 0.000000 0.000000 -7.125000 0.000000 0.000000 2.931834 36.852335 0.588677 0.000000 0.000000 0.000000 -18.709861 14.494499 51.300762 -134.627689 -50.948154 -97.472060 -24.345812 -35.210669 -19.632788 0.000000 0.000000 0.000000 7.125000 0.000000 0.000000 2.567005 8.614750 2.156242
-4.421798 14.851829 -15.805945 -97.761807 -73.879343 -624.857738 0.000000 0.000000 0.000000 -25.472814 -12.007642 -15.104392 3.308316 11.178124 32.882935 0.964714 3.339112 -20.051442 1.977041 8.798932 25.180992 0.000000 0.000000 0.000000 25.470893 -6.502042 0.173841 -9.720780 -17.219879 58.507961 0.924589 -17.620093 -12.539907 -2.228076 9.324484 -26.816811 6.473808 3.792747 9.794411 0.504196 5.217276 6.549073 -3.479085 2.691602 1.924344 13.947044 9.011481 -5.333359 -14.905825 12.199129 6.922114 -6.059172 5.769014 4.741050 0.000000 0.000000 0.000000 4.666857 48.117437 -24.018904 83.637835 -59.843894 54.493237 29.335028 -20.750216 -6.699332 0.000000 0.000000 0.000000 -7.125000 0.000000 0.000000 2.199191 37.645086 0.398898 0.000000 0.000000 0.000000 -18.211803 18.556685 52.555764 -134.829519 -50.851053 -97.628907 -24.658703 -34.854973 -20.826806 0.000000 0.000000 0.000000 7.125000 0.000000 0.000000 2.487576 7.284483 2.153590
-5.232219 14.628761 -15.924172 -88.020775 -76.809342 -634.622588 0.000000 0.000000 0.000000 -29.659141 -11.456767 -11.850868 3.443642 11.379934 33.573178 1.202745 0.720594 -21.008281 2.659910 10.120566 29.370216 0.000000 0.000000 0.000000 21.715042 -1.993940 -5.904845 -13.108284 -18.797169 69.438849 1.012783 -19.469785 -16.536565 -2.217526 9.303864 -26.751624 3.806193 3.511437 10.521997 -0.795391 4.681662 6.457851 -3.372024 2.354014 1.239985 14.838189 9.681248 -4.613613 -15.245521 13.076916 5.982288 -6.249480 6.253751 4.551630 0.000000 0.000000 0.000000 6.011313 42.947340 -25.705008 79.651187 -59.586123 51.050418 29.440705 -20.655323 -7.649776 0.000000 0.000000 0.000000 -7.125000 0.000000 0.000000 2.265996 38.738385 0.348998 0.000000 0.000000 0.000000 -16.615754 22.652870 52.228589 -131.184235 -52.485801 -94.762877 -26.191613 -34.225547 -21.181873 0.000000 0.000000 0.000000 7.125000 0.000000 0.000000 1.555416 6.628742 1.365554
-5.990597 14.429782 -16.022724 -71.634025 -78.763936 -650.672875 0.000000 0.000000 0.000000 -33.160475 -11.434165 -9.184225 3.765558 11.840993 35.172844 1.509701 -2.130103 -22.647902 2.735554 10.253854 29.803040 0.000000 0.000000 0.000000 18.788549 4.264606 -13.122278 -15.942883 -19.592096 78.056832 0.797686 -18.616536 -17.891519 -2.563186 9.949712 -28.815885 1.598739 3.273036 11.642785 -2.035134 4.161218 6.414470 -3.458826 2.034212 0.465790 15.449926 10.196925 -4.267468 -15.346985 13.695441 4.906980 -6.333272 6.598079 4.316523 0.000000 0.000000 0.000000 8.581633 36.111528 -29.404051 76.879074 -59.339354 48.662125 29.836921 -19.356733 -8.605574 0.000000 0.000000 0.000000 -7.125000 0.000000 0.000000 2.582240 39.863380 0.326987 0.000000 0.000000 0.000000 -13.926708 26.538762 50.142684 -123.377321 -55.299162 -88.443748 -28.751833 -33.894521 -20.431256 0.000000 0.000000 0.000000 7.125000 0.000000 0.000000 -0.157457 6.959829 -0.134244
-6.750403 14.297692 -16.081632 -52.701492 -78.648825 -669.133170 0.000000 0.000000 0.000000 -35.338795 -11.328126 -6.079294 3.946504 12.088790 36.046900 1.676973 -4.778122 -23.417275 2.556521 9.939909 28.782436 0.000000 0.000000 0.000000 16.754421 10.735350 -20.808565 -17.580233 -19.858877 82.909075 0.444449 -16.520312 -18.512537 -2.882964 10.502470 -30.620357 0.295429 3.025357 12.589056 -2.874838 3.663775 6.428122 -3.607108 1.752795 -0.093431 15.757730 10.548283 -4.032953 -15.285121 14.101018 4.007286 -6.337212 6.827039 4.088486 0.000000 0.000000 0.000000 10.744552 29.375787 -33.188766 79.132255 -59.540769 50.603211 29.625977 -17.341381 -8.922425 0.000000 0.000000 0.000000 -7.125000 0.000000 0.000000 2.385252 40.206478 0.281599 0.000000 0.000000 0.000000 -11.174327 30.125970 47.479899 -113.393759 -57.812442 -80.109117 -31.318036 -35.171470 -18.670916 0.000000 0.000000 0.000000 7.125000 0.000000 0.000000 -2.026585 8.410473 -1.707568
-7.569823 14.281667 -16.061855 -38.272881 -76.400758 -683.040369 0.000000 0.000000 0.000000 -36.232580 -11.056437 -1.491983 3.716594 11.773201 34.934536 1.637275 -6.872216 -22.941269 2.418614 9.688316 27.973317 0.000000 0.000000 0.000000 15.392855 15.266911 -27.840427 -17.459553 -19.844374 82.553643 0.242281 -15.386997 -19.125305 -3.218732 11.040643 -32.417351 -0.313762 2.565427 12.763612 -3.067409 2.992167 6.440582 -3.393987 1.408159 -0.240095 15.924787 10.818906 -3.589626 -15.425521 14.481831 3.471000 -6.394306 7.037870 3.938374 0.000000 0.000000 0.000000 11.499733 24.383212 -35.921928 88.491720 -59.985037 58.694001 28.559198 -16.114240 -7.844515 0.000000 0.000000 0.000000 -7.125000 0.000000 0.000000 1.494099 38.890831 0.224235 0.000000 0.000000 0.000000 -9.633469 33.749198 45.731750 -105.457325 -59.074854 -73.344588 -33.141213 -38.212070 -17.095319 0.000000 0.000000 0.000000 7.125000 0.000000 0.000000 -3.420908 9.840346 -2.790615
-8.454817 14.398242 -15.944092 -30.484851 -72.898664 -690.370124 0.000000 0.000000 0.000000 -36.146474 -11.047017 4.515119 3.124576 10.890212 31.914641 1.314054 -7.169070 -20.478974 2.093629 9.055484 25.971245 0.000000 0.000000 0.000000 15.050540 17.307607 -32.546034 -15.390877 -19.472882 76.405310 0.165725 -15.382537 -20.031767 -3.616525 11.630173 -34.438029 -0.543713 1.958778 12.300570 -2.652839 2.217527 6.424767 -2.718256 1.022978 -0.079809 15.960163 11.076513 -3.116349 -15.868332 14.911354 3.310706 -6.517424 7.259707 3.920901 0.000000 0.000000 0.000000 11.038241 21.198534 -37.905324 102.256574 -59.379594 70.589888 26.984107 -15.368944 -5.557990 0.000000 0.000000 0.000000 -7.125000 0.000000 0.000000 0.239698 36.213814 0.046389 0.000000 0.000000 0.000000 -9.219267 37.673593 44.816636 -102.167577 -59.432370 -70.517293 -34.067664 -41.140047 -16.779607 0.000000 0.000000 0.000000 7.125000 0.000000 0.000000 -4.066138 10.018104 -3.305392
